<?xml version="1.0" standalone="no"?><!DOCTYPE svg PUBLIC "-//W3C//DTD SVG 1.1//EN" "http://www.w3.org/Graphics/SVG/1.1/DTD/svg11.dtd"><svg t="1600745070289" class="icon" viewBox="0 0 1024 1024" version="1.1" xmlns="http://www.w3.org/2000/svg" p-id="2629" xmlns:xlink="http://www.w3.org/1999/xlink" width="200" height="200"><defs><style type="text/css"></style></defs><path d="M844.515556 817.777778 684.562963 657.73037c45.037037-51.294815 72.438519-118.613333 72.438519-192.284444 0-160.995556-130.56-291.555556-291.555556-291.555556S173.89037 304.45037 173.89037 465.445926s130.56 291.555556 291.555556 291.555556c73.671111 0 140.98963-27.306667 192.284444-72.438519l159.952593 159.952593c7.395556 7.395556 19.437037 7.395556 26.832593 0S851.911111 825.078519 844.515556 817.777778zM465.445926 719.075556c-140.041481 0-253.62963-113.588148-253.62963-253.62963s113.588148-253.62963 253.62963-253.62963 253.62963 113.588148 253.62963 253.62963S605.582222 719.075556 465.445926 719.075556z" p-id="2630"></path></svg>