<?xml version="1.0" standalone="no"?><!DOCTYPE svg PUBLIC "-//W3C//DTD SVG 1.1//EN" "http://www.w3.org/Graphics/SVG/1.1/DTD/svg11.dtd"><svg t="1600743425546" class="icon" viewBox="0 0 1024 1024" version="1.1" xmlns="http://www.w3.org/2000/svg" p-id="3255" xmlns:xlink="http://www.w3.org/1999/xlink" width="200" height="200"><defs><style type="text/css"></style></defs><path d="M868.459789 497.178947a188.631579 188.631579 0 0 0-266.778947-266.778947L525.473684 306.661053 449.266526 230.4a188.631579 188.631579 0 0 0-266.778947 266.778947L525.473684 840.165053 868.459789 497.178947zM506.421895 173.244632l19.051789 19.051789 19.05179-19.051789c105.229474-105.229474 275.860211-105.229474 381.089684 0 105.229474 105.229474 105.229474 275.860211 0 381.089684L525.473684 954.502737 125.305263 554.307368C20.129684 449.104842 20.129684 278.474105 125.305263 173.271579c105.256421-105.229474 275.887158-105.229474 381.116632 0z" fill="#333333" p-id="3256"></path></svg>